<?xml version="1.0" encoding="utf-8"?>
<!-- Generator: Adobe Illustrator 26.0.3, SVG Export Plug-In . SVG Version: 6.00 Build 0)  -->
<svg version="1.1" id="Ebene_1" xmlns="http://www.w3.org/2000/svg" xmlns:xlink="http://www.w3.org/1999/xlink" x="0px" y="0px"
	 viewBox="0 0 426.9 83.7" style="enable-background:new 0 0 426.9 83.7;" xml:space="preserve">
<style type="text/css">
	.st0{fill-rule:evenodd;clip-rule:evenodd;fill:#168536;}
	.st1{fill:#575756;}
	.st2{fill:#168536;}
</style>
<g>
	<g>
		<path class="st0" d="M38.6,29.8c-0.9-0.6-1.5-1.6-2.4-2.2c0.8-2.2,2.1-4.4,3.6-5.6c4.8-4,12.1-5.8,17.9-8.1
			c3.8-1.8,5.8-3.1,8.7-6.8c0.2-0.3-0.1-0.7-0.4-0.5c-7,5.7-16.4,7.3-24.6,11.6c-0.9,0.6-1.8,1.1-1.8,0.1
			c0.8-15.5,12.6-14.7,24.8-17c2.7-0.5,6.4-1.5,7.9-1.3c0.5,0.1,0.8,0.2,0.7,0.6c-0.7,9-4.5,17-12.4,22.2
			c-5.6,2.9-12.3,3.6-17.9,0.7C40.2,25.2,39.8,27.9,38.6,29.8"/>
		<path class="st0" d="M65.9,77.9V50.8c0-5.1,1.3-8.8,3.8-11.2c2.5-2.4,6.4-3.7,11.7-3.7h8.9v11.7h-7c-1.4,0-2.4,0.3-3.1,1
			c-0.7,0.7-1,1.7-1,3.1v0.9h11.2v11.2H79.1v14.1"/>
		<path class="st0" d="M35.8,40c0.6-1.2,0.7-2.6,0.4-3.9c-0.4-1.6-2.4-4.9-4.3-4.3c-6.1,1.8-7,2.3-12.3,0.9
			c-3.5-0.9-7.2-3.1-9.7-5.7c-2.6-2.7-4.4-6.1-5.7-9.4c-1-2.7-1.6-5.4-2-8.3C2,7.6,2.9,7.8,4.5,8.1c4.8,1.2,9.9,1.1,14.8,1.9
			c2.1,0.3,5.4,1.4,6.8,2.1c2.7,1.4,4.7,2.7,6.4,5.2c1.7,2.5,3.5,5.8,3,8.9c-0.1,0.5-0.6,0.7-1,0.4c-4.2-2.8-9.1-4.1-13.6-5.7
			c-4.4-1.5-7.8-3.5-11.7-6.6c-0.3-0.2-0.5,0.2-0.3,0.5c2.9,5.1,9.3,7.1,14.5,9.1c4.3,1.7,8.8,2.6,12.6,6c2.1,1.9,3.4,4.3,3.4,7.6
			c2.3-1.1,5.2-1.6,8.7-1.6h12.6v12H50.3c-0.7,0-1.3,0.1-1.6,0.3c-0.3,0.2-0.5,0.5-0.5,0.8c0,0.3,0.1,0.5,0.2,0.8
			c0.2,0.2,0.5,0.6,1,1l5.8,4.5c3,2.3,4.9,4.2,5.7,5.7c0.8,1.5,1.2,3.2,1.2,5.2c0,3.6-1.4,6.5-4.1,8.6c-2.7,2.1-6.5,3.1-11.3,3.1H33
			V65.6h11.4c0.8,0,1.3-0.1,1.7-0.4c0.4-0.2,0.5-0.6,0.5-1.1c0-0.3-0.1-0.6-0.2-0.9c-0.1-0.3-0.3-0.6-0.5-0.7l-8.5-6.7
			c-1.3-1.1-2.4-2.3-3.1-3.9c-0.7-1.5-1.1-3.2-1.1-5C33.2,44.1,34.1,41.8,35.8,40"/>
		<path class="st0" d="M27.8,47.6h-2.6c-3.1,0-5.5,0.3-7.1,0.9c-1.6,0.6-2.8,1.7-3.8,3.2h13.4V62H14.3c0.9,1.6,2.2,2.7,3.8,3.3
			c1.6,0.7,4,1,7.1,1h2.6v11.6h-1.1c-3.7,0-7-0.3-9.8-0.9c-2.8-0.6-5.1-1.5-7-2.7c-3.1-2-5.6-4.5-7.3-7.5c-1.7-3-2.6-6.4-2.6-10
			C0,53.3,0.9,50,2.6,47c1.7-3,4.1-5.5,7.3-7.5c1.9-1.2,4.2-2.1,7-2.7c2.8-0.6,6.1-0.9,9.8-0.9h1.1"/>
	</g>
	<g>
		<path class="st1" d="M112.2,45.7v-1.7l1.4-0.2l6.7-17.2h2.2l6.6,17.2l1.4,0.2v1.7H125v-1.7l1.4-0.2l-1.3-3.5h-7.6l-1.3,3.5
			l1.4,0.2v1.7H112.2z M118.3,38.1h6.1l-2.8-7.8l-0.2-0.4h-0.1l-0.2,0.4L118.3,38.1z"/>
		<path class="st1" d="M132.3,45.7v-1.7l2.1-0.4V33.5l-2.1-0.4v-1.7h4.4l0.2,1.8l0,0.2c0.4-0.7,0.9-1.3,1.5-1.7
			c0.6-0.4,1.3-0.6,2-0.6c0.3,0,0.5,0,0.8,0.1c0.3,0,0.5,0.1,0.6,0.1l-0.3,2.4l-1.8-0.1c-0.7,0-1.3,0.1-1.7,0.5s-0.8,0.8-1.1,1.4v8
			l2.1,0.4v1.7H132.3z"/>
		<path class="st1" d="M151.1,46c-0.9,0-1.7-0.2-2.4-0.5c-0.7-0.4-1.2-0.9-1.7-1.6l-0.2,1.8h-2.2V27.3l-2.1-0.4v-1.7h4.7v7.9
			c0.4-0.6,1-1.1,1.7-1.4c0.7-0.3,1.4-0.5,2.3-0.5c1.2,0,2.2,0.3,3,1c0.8,0.6,1.5,1.5,1.9,2.7c0.4,1.1,0.7,2.5,0.7,4v0.3
			c0,1.4-0.2,2.6-0.7,3.6c-0.4,1-1.1,1.8-1.9,2.4C153.2,45.7,152.2,46,151.1,46z M150.4,43.9c1.2,0,2.1-0.4,2.7-1.3
			c0.6-0.9,0.9-2,0.9-3.4v-0.3c0-1.1-0.1-2.1-0.4-2.9s-0.7-1.5-1.2-1.9c-0.5-0.5-1.2-0.7-2-0.7c-0.8,0-1.5,0.2-2,0.6
			c-0.5,0.4-1,0.9-1.3,1.5v6.3c0.3,0.7,0.8,1.2,1.3,1.6C148.9,43.7,149.6,43.9,150.4,43.9z"/>
		<path class="st1" d="M165.5,46c-1.3,0-2.5-0.3-3.4-0.9c-1-0.6-1.7-1.4-2.2-2.5c-0.5-1.1-0.8-2.3-0.8-3.7v-0.6
			c0-1.3,0.3-2.6,0.8-3.6c0.6-1.1,1.3-1.9,2.2-2.5c0.9-0.6,1.9-0.9,3-0.9c1.3,0,2.3,0.3,3.2,0.8c0.9,0.5,1.5,1.3,1.9,2.2
			s0.7,2.1,0.7,3.4v1.6h-9.2l0,0.1c0,0.9,0.2,1.7,0.5,2.4c0.3,0.7,0.7,1.3,1.3,1.7c0.6,0.4,1.2,0.6,2,0.6c0.9,0,1.6-0.1,2.3-0.4
			c0.7-0.2,1.2-0.6,1.7-1l1,1.7c-0.5,0.5-1.2,0.9-2,1.2C167.7,45.8,166.7,46,165.5,46z M161.8,37.2h6.5v-0.3c0-0.7-0.1-1.3-0.4-1.8
			c-0.2-0.5-0.6-1-1.1-1.3c-0.5-0.3-1.1-0.5-1.8-0.5c-0.6,0-1.1,0.2-1.6,0.5s-0.9,0.8-1.2,1.4C162.1,35.7,161.9,36.4,161.8,37.2
			L161.8,37.2z"/>
		<path class="st1" d="M172.9,45.7v-1.7l2.1-0.4V33.5l-2.1-0.4v-1.7h4.7v12.2l2.1,0.4v1.7H172.9z M174.9,28v-2.8h2.7V28H174.9z"/>
		<path class="st1" d="M186.5,45.9c-1,0-1.9-0.3-2.5-0.9c-0.6-0.6-0.9-1.6-0.9-3v-8.6h-2.2v-1.9h2.2v-3.4h2.6v3.4h3.1v1.9h-3.1V42
			c0,0.7,0.1,1.2,0.4,1.5s0.6,0.5,1.1,0.5c0.3,0,0.6,0,1-0.1c0.4-0.1,0.7-0.1,0.9-0.2l0.4,1.7c-0.4,0.1-0.8,0.2-1.4,0.3
			C187.5,45.9,187,45.9,186.5,45.9z"/>
		<path class="st1" d="M196.8,46c-1,0-1.8-0.1-2.7-0.3s-1.7-0.5-2.6-0.9l0-3.4h2l0.5,2c0.5,0.2,1,0.3,1.4,0.4s1,0.1,1.5,0.1
			c1,0,1.8-0.2,2.3-0.6c0.5-0.4,0.7-0.9,0.7-1.5c0-0.6-0.2-1-0.7-1.4c-0.5-0.4-1.3-0.7-2.5-1c-1.7-0.4-3-0.9-3.8-1.6
			s-1.2-1.5-1.2-2.6c0-0.8,0.2-1.5,0.7-2.1s1.1-1.1,1.9-1.4c0.8-0.4,1.7-0.5,2.8-0.5c1.1,0,2,0.1,2.8,0.4c0.8,0.2,1.4,0.6,2,1
			l0.1,3.2h-1.9l-0.4-1.9c-0.3-0.2-0.7-0.4-1.1-0.5c-0.4-0.1-0.9-0.2-1.4-0.2c-0.8,0-1.5,0.2-2,0.6s-0.8,0.8-0.8,1.4
			c0,0.3,0.1,0.6,0.2,0.9c0.1,0.2,0.4,0.5,0.8,0.7c0.4,0.2,1,0.4,1.8,0.6c2,0.5,3.4,1.1,4.1,1.8s1.2,1.6,1.2,2.6
			c0,1.2-0.4,2.2-1.3,3C200.1,45.6,198.7,46,196.8,46z"/>
		<path class="st1" d="M210.7,51.4c-0.7,0-1.4-0.1-2.2-0.3c-0.8-0.2-1.5-0.4-2.1-0.8l0.7-2c0.5,0.3,1,0.5,1.7,0.6
			c0.7,0.2,1.3,0.2,1.9,0.2c1.2,0,2-0.3,2.5-1c0.5-0.6,0.8-1.6,0.8-2.8v-1.4c-0.5,0.6-1,1-1.7,1.4c-0.6,0.3-1.4,0.5-2.2,0.5
			c-1.2,0-2.2-0.3-3-0.9c-0.8-0.6-1.5-1.4-1.9-2.4c-0.5-1-0.7-2.2-0.7-3.6v-0.3c0-1.5,0.2-2.9,0.7-4s1.1-2,1.9-2.7
			c0.8-0.6,1.8-1,3-1c0.9,0,1.7,0.2,2.3,0.5c0.7,0.3,1.2,0.9,1.7,1.5l0.2-1.8h2.2v14c0,1.2-0.2,2.3-0.7,3.2s-1.1,1.6-2,2
			S212,51.4,210.7,51.4z M210.8,43.9c0.8,0,1.4-0.2,2-0.5c0.5-0.4,1-0.9,1.3-1.5v-6.5c-0.3-0.6-0.8-1.1-1.3-1.4
			c-0.5-0.4-1.2-0.5-1.9-0.5c-0.8,0-1.5,0.2-2.1,0.7c-0.5,0.5-1,1.1-1.2,1.9c-0.3,0.8-0.4,1.8-0.4,2.9v0.3c0,1.4,0.3,2.6,0.9,3.4
			C208.6,43.4,209.5,43.9,210.8,43.9z M216.2,33.6l-1-2.1h3.2v1.7L216.2,33.6z"/>
		<path class="st1" d="M219.6,45.7v-1.7l2.1-0.4V33.5l-2.1-0.4v-1.7h4.4l0.2,1.8l0,0.2c0.4-0.7,0.9-1.3,1.5-1.7
			c0.6-0.4,1.3-0.6,2-0.6c0.3,0,0.5,0,0.8,0.1c0.3,0,0.5,0.1,0.6,0.1l-0.3,2.4l-1.8-0.1c-0.7,0-1.3,0.1-1.7,0.5
			c-0.5,0.4-0.8,0.8-1.1,1.4v8l2.1,0.4v1.7H219.6z"/>
		<path class="st1" d="M237.1,46c-1.5,0-2.7-0.5-3.6-1.5c-0.9-1-1.3-2.5-1.3-4.6v-6.3l-1.6-0.4v-1.7h1.6h2.6v8.4
			c0,1.5,0.2,2.6,0.7,3.1c0.4,0.6,1.1,0.9,2.1,0.9c0.9,0,1.7-0.2,2.3-0.6c0.6-0.4,1.1-0.9,1.4-1.6v-8.2l-1.9-0.4v-1.7h1.9h2.6v12.2
			l1.6,0.4v1.7h-3.9l-0.2-2.1c-0.4,0.8-1,1.3-1.7,1.8C238.8,45.8,238,46,237.1,46z"/>
		<path class="st1" d="M246.8,51.2v-1.7l2-0.4V33.5l-2.1-0.4v-1.7h4.4l0.2,1.7c0.5-0.6,1-1.1,1.7-1.5c0.7-0.3,1.5-0.5,2.4-0.5
			c1.2,0,2.2,0.3,3,1c0.8,0.6,1.5,1.5,1.9,2.7c0.4,1.1,0.7,2.5,0.7,4v0.3c0,1.4-0.2,2.6-0.7,3.6s-1.1,1.8-1.9,2.4
			c-0.8,0.6-1.8,0.9-3,0.9c-0.9,0-1.6-0.1-2.3-0.4c-0.7-0.3-1.2-0.7-1.7-1.3v4.9l2.3,0.4v1.7H246.8z M254.6,44
			c1.2,0,2.2-0.4,2.8-1.3c0.6-0.9,0.9-2.1,0.9-3.5v-0.3c0-1.1-0.1-2-0.4-2.9c-0.3-0.8-0.7-1.5-1.3-1.9c-0.6-0.5-1.2-0.7-2.1-0.7
			c-0.7,0-1.4,0.2-1.9,0.5c-0.5,0.3-0.9,0.8-1.3,1.4v6.9c0.3,0.6,0.7,1,1.3,1.4C253.2,43.8,253.8,44,254.6,44z"/>
		<path class="st1" d="M262.5,51.2v-1.7l2-0.4V33.5l-2.1-0.4v-1.7h4.4l0.2,1.7c0.5-0.6,1-1.1,1.7-1.5c0.7-0.3,1.5-0.5,2.4-0.5
			c1.2,0,2.2,0.3,3,1c0.8,0.6,1.5,1.5,1.9,2.7c0.4,1.1,0.7,2.5,0.7,4v0.3c0,1.4-0.2,2.6-0.7,3.6s-1.1,1.8-1.9,2.4
			c-0.8,0.6-1.8,0.9-3,0.9c-0.9,0-1.6-0.1-2.3-0.4c-0.7-0.3-1.2-0.7-1.7-1.3v4.9l2.3,0.4v1.7H262.5z M270.3,44
			c1.2,0,2.2-0.4,2.8-1.3c0.6-0.9,0.9-2.1,0.9-3.5v-0.3c0-1.1-0.1-2-0.4-2.9c-0.3-0.8-0.7-1.5-1.3-1.9c-0.6-0.5-1.2-0.7-2.1-0.7
			c-0.7,0-1.4,0.2-1.9,0.5c-0.5,0.3-0.9,0.8-1.3,1.4v6.9c0.3,0.6,0.7,1,1.3,1.4C268.9,43.8,269.5,44,270.3,44z"/>
		<path class="st1" d="M285.6,46c-1.3,0-2.5-0.3-3.4-0.9c-1-0.6-1.7-1.4-2.2-2.5c-0.5-1.1-0.8-2.3-0.8-3.7v-0.6
			c0-1.3,0.3-2.6,0.8-3.6c0.6-1.1,1.3-1.9,2.2-2.5c0.9-0.6,1.9-0.9,3-0.9c1.3,0,2.3,0.3,3.2,0.8c0.9,0.5,1.5,1.3,1.9,2.2
			s0.7,2.1,0.7,3.4v1.6h-9.2l0,0.1c0,0.9,0.2,1.7,0.5,2.4s0.7,1.3,1.3,1.7c0.6,0.4,1.2,0.6,2,0.6c0.9,0,1.6-0.1,2.3-0.4
			c0.7-0.2,1.2-0.6,1.7-1l1,1.7c-0.5,0.5-1.2,0.9-2,1.2C287.7,45.8,286.7,46,285.6,46z M281.9,37.2h6.5v-0.3c0-0.7-0.1-1.3-0.4-1.8
			c-0.2-0.5-0.6-1-1.1-1.3c-0.5-0.3-1.1-0.5-1.8-0.5c-0.6,0-1.1,0.2-1.6,0.5c-0.5,0.3-0.9,0.8-1.2,1.4
			C282.1,35.7,281.9,36.4,281.9,37.2L281.9,37.2z"/>
		<path class="st2" d="M118.1,77.9l-4.4-16.7l-1.9-0.2v-2.2h7.4V61l-2,0.3l2.3,9.5l0.4,1.9l0.1,0l0.5-1.9l3.8-12h2.7l3.9,12.3
			l0.5,1.7h0.1l0.5-1.7l2.3-9.8l-2.2-0.3v-2.2h7.2V61l-1.8,0.2l-4.4,16.7h-3.3l-3.7-11.6l-0.5-1.7h-0.1l-0.5,1.7l-3.8,11.6H118.1z"
			/>
		<path class="st2" d="M140.7,77.9v-2.2l1.9-0.4v-9.1l-2.1-0.4v-2.2h5.6v11.6l1.9,0.4v2.2H140.7z M142.4,60.6v-3.2h3.7v3.2H142.4z"
			/>
		<path class="st2" d="M149.3,77.9v-2.2l1.9-0.4v-9.1l-2-0.4v-2.2h5.4l0.2,2c0.5-0.7,1.1-1.3,1.8-1.7c0.7-0.4,1.5-0.6,2.4-0.6
			c1.4,0,2.5,0.4,3.4,1.3c0.8,0.9,1.2,2.3,1.2,4.2v6.3l1.9,0.4v2.2h-7.2v-2.2l1.7-0.4v-6.3c0-1-0.2-1.7-0.6-2.2
			c-0.4-0.4-1-0.6-1.8-0.6c-0.6,0-1.1,0.1-1.6,0.4c-0.4,0.3-0.8,0.6-1.1,1.1v7.6l1.7,0.4v2.2H149.3z"/>
		<path class="st2" d="M172,78.2c-1.1,0-2.1-0.3-2.9-0.9c-0.8-0.6-1.4-1.4-1.9-2.4c-0.4-1-0.6-2.3-0.6-3.7V71c0-1.5,0.2-2.8,0.6-3.9
			c0.4-1.1,1.1-2,1.9-2.6c0.8-0.6,1.8-0.9,2.9-0.9c0.8,0,1.5,0.2,2.1,0.5c0.6,0.3,1.1,0.8,1.5,1.3V60l-2.1-0.4v-2.2h2.1h3.6v17.9
			l1.9,0.4v2.2h-5l-0.3-1.7c-0.4,0.7-1,1.2-1.6,1.5C173.6,78,172.8,78.2,172,78.2z M173,75.4c0.6,0,1.1-0.1,1.5-0.4
			c0.4-0.3,0.8-0.6,1.1-1.1v-6.1c-0.3-0.5-0.6-0.9-1-1.1c-0.4-0.3-0.9-0.4-1.5-0.4c-0.7,0-1.2,0.2-1.7,0.6c-0.4,0.4-0.8,0.9-1,1.7
			c-0.2,0.7-0.3,1.5-0.3,2.5v0.3c0,1.3,0.2,2.3,0.7,3S172,75.4,173,75.4z"/>
		<path class="st2" d="M189.1,78.2c-1.3,0-2.5-0.3-3.5-0.9s-1.8-1.4-2.3-2.5s-0.8-2.3-0.8-3.6v-0.5c0-1.4,0.3-2.6,0.8-3.7
			c0.5-1.1,1.3-1.9,2.2-2.6c1-0.6,2.1-0.9,3.3-0.9c1.3,0,2.4,0.3,3.2,0.8c0.9,0.5,1.5,1.2,2,2.2c0.4,1,0.7,2.1,0.7,3.4v2h-8.5l0,0.1
			c0,0.7,0.2,1.3,0.5,1.8c0.3,0.5,0.7,0.9,1.1,1.3c0.5,0.3,1.1,0.5,1.8,0.5c0.7,0,1.4-0.1,2-0.3s1.2-0.5,1.8-0.9l1,2.2
			c-0.6,0.5-1.3,0.9-2.2,1.2C191.3,78,190.3,78.2,189.1,78.2z M186.2,69.4h5.1v-0.3c0-0.6-0.1-1.1-0.3-1.6s-0.4-0.8-0.8-1
			c-0.4-0.2-0.8-0.4-1.4-0.4c-0.5,0-1,0.1-1.4,0.4c-0.4,0.3-0.7,0.7-0.9,1.2C186.4,68.2,186.2,68.8,186.2,69.4L186.2,69.4z"/>
		<path class="st2" d="M196.4,77.9v-2.2l1.9-0.4v-9.1l-2-0.4v-2.2h5.3l0.2,2c0.5-0.7,1.1-1.3,1.8-1.7c0.7-0.4,1.5-0.6,2.4-0.6
			c1.4,0,2.5,0.4,3.4,1.3c0.8,0.9,1.2,2.3,1.2,4.2v6.3l1.9,0.4v2.2h-7.2v-2.2l1.7-0.4v-6.3c0-1-0.2-1.7-0.6-2.2
			c-0.4-0.4-1-0.6-1.8-0.6c-0.6,0-1.1,0.1-1.6,0.4c-0.4,0.3-0.8,0.6-1.1,1.1v7.6l1.7,0.4v2.2H196.4z"/>
		<path class="st2" d="M220.3,78.2c-1.3,0-2.5-0.3-3.5-0.9s-1.8-1.4-2.3-2.5c-0.5-1.1-0.8-2.3-0.8-3.6v-0.5c0-1.4,0.3-2.6,0.8-3.7
			c0.5-1.1,1.3-1.9,2.2-2.6c1-0.6,2.1-0.9,3.3-0.9c1.3,0,2.4,0.3,3.2,0.8c0.9,0.5,1.5,1.2,2,2.2c0.4,1,0.7,2.1,0.7,3.4v2h-8.5l0,0.1
			c0,0.7,0.2,1.3,0.5,1.8c0.3,0.5,0.7,0.9,1.1,1.3c0.5,0.3,1.1,0.5,1.8,0.5c0.7,0,1.4-0.1,2-0.3s1.2-0.5,1.8-0.9l1,2.2
			c-0.6,0.5-1.3,0.9-2.2,1.2C222.5,78,221.5,78.2,220.3,78.2z M217.4,69.4h5.1v-0.3c0-0.6-0.1-1.1-0.3-1.6s-0.4-0.8-0.8-1
			c-0.4-0.2-0.8-0.4-1.4-0.4c-0.5,0-1,0.1-1.4,0.4c-0.4,0.3-0.7,0.7-0.9,1.2S217.4,68.8,217.4,69.4L217.4,69.4z"/>
		<path class="st2" d="M227.9,77.9v-2.2l1.9-0.4v-9.1l-2-0.4v-2.2h5.4l0.2,1.8l0,0.3c0.4-0.8,0.8-1.3,1.3-1.7
			c0.5-0.4,1.2-0.6,1.9-0.6c0.2,0,0.5,0,0.8,0.1c0.3,0,0.5,0.1,0.7,0.2l-0.4,3.3l-1.9-0.1c-0.6,0-1,0.1-1.4,0.3
			c-0.4,0.2-0.7,0.6-0.9,1v7.2l1.9,0.4v2.2H227.9z"/>
		<path class="st2" d="M245.2,83.7c-0.7,0-1.5-0.1-2.4-0.3c-0.9-0.2-1.6-0.4-2.3-0.8l0.7-2.6c0.6,0.3,1.2,0.5,1.9,0.6
			c0.7,0.2,1.3,0.2,1.9,0.2c1.1,0,1.8-0.3,2.3-0.9c0.5-0.6,0.7-1.4,0.7-2.5v-1c-0.4,0.5-0.9,1-1.5,1.2c-0.6,0.3-1.3,0.4-2,0.4
			c-1.2,0-2.1-0.3-3-0.9c-0.8-0.6-1.5-1.4-1.9-2.4c-0.4-1-0.7-2.3-0.7-3.7V71c0-1.5,0.2-2.8,0.7-3.9c0.4-1.1,1.1-2,1.9-2.6
			c0.8-0.6,1.8-0.9,2.9-0.9c0.9,0,1.6,0.2,2.2,0.5c0.6,0.4,1.2,0.9,1.6,1.5l0.3-1.8h3.1v13.8c0,1.2-0.3,2.3-0.8,3.2
			c-0.5,0.9-1.3,1.6-2.2,2.1C247.7,83.4,246.6,83.7,245.2,83.7z M245.6,75.4c0.6,0,1.1-0.1,1.5-0.4c0.4-0.2,0.8-0.6,1-1v-6.2
			c-0.3-0.5-0.6-0.8-1-1.1c-0.4-0.3-0.9-0.4-1.5-0.4c-0.7,0-1.3,0.2-1.7,0.6c-0.4,0.4-0.8,0.9-1,1.7c-0.2,0.7-0.3,1.5-0.3,2.5v0.3
			c0,1.3,0.2,2.3,0.7,3S244.5,75.4,245.6,75.4z M251.2,66.4l-1.5-2.6h3.7v2.2L251.2,66.4z"/>
		<path class="st2" d="M254.5,77.9v-2.2l1.9-0.4v-9.1l-2.1-0.4v-2.2h5.6v11.6l1.9,0.4v2.2H254.5z M256.2,60.6v-3.2h3.7v3.2H256.2z"
			/>
		<path class="st2" d="M269.9,78.2c-1.3,0-2.5-0.3-3.5-0.9s-1.8-1.4-2.3-2.5c-0.5-1.1-0.8-2.3-0.8-3.6v-0.5c0-1.4,0.3-2.6,0.8-3.7
			c0.5-1.1,1.3-1.9,2.2-2.6c1-0.6,2.1-0.9,3.3-0.9c1.3,0,2.4,0.3,3.2,0.8c0.9,0.5,1.5,1.2,2,2.2c0.4,1,0.7,2.1,0.7,3.4v2H267l0,0.1
			c0,0.7,0.2,1.3,0.5,1.8c0.3,0.5,0.7,0.9,1.1,1.3c0.5,0.3,1.1,0.5,1.8,0.5c0.7,0,1.4-0.1,2-0.3s1.2-0.5,1.8-0.9l1,2.2
			c-0.6,0.5-1.3,0.9-2.2,1.2C272.1,78,271.1,78.2,269.9,78.2z M267,69.4h5.1v-0.3c0-0.6-0.1-1.1-0.3-1.6s-0.4-0.8-0.8-1
			c-0.4-0.2-0.8-0.4-1.4-0.4c-0.5,0-1,0.1-1.4,0.4c-0.4,0.3-0.7,0.7-0.9,1.2S267,68.8,267,69.4L267,69.4z"/>
		<path class="st2" d="M278.2,71.2v-2.8h7.2v2.8H278.2z"/>
		<path class="st2" d="M287.9,77.9v-2.2l2.1-0.4v-14l-2.1-0.4v-2.2h15v5.1h-2.8l-0.2-2.3h-6.5v5.5h6.8v2.8h-6.8v5.5l2.1,0.4v2.2
			H287.9z"/>
		<path class="st2" d="M304.4,77.9v-2.2l1.9-0.4v-9.1l-2-0.4v-2.2h5.4l0.2,1.8l0,0.3c0.4-0.8,0.8-1.3,1.3-1.7
			c0.5-0.4,1.2-0.6,1.9-0.6c0.2,0,0.5,0,0.8,0.1c0.3,0,0.5,0.1,0.7,0.2L314,67l-1.9-0.1c-0.6,0-1,0.1-1.4,0.3
			c-0.4,0.2-0.7,0.6-0.9,1v7.2l1.9,0.4v2.2H304.4z"/>
		<path class="st2" d="M322.1,78.2c-1.3,0-2.5-0.3-3.5-0.9s-1.8-1.4-2.3-2.5c-0.5-1.1-0.8-2.3-0.8-3.6v-0.5c0-1.4,0.3-2.6,0.8-3.7
			c0.5-1.1,1.3-1.9,2.2-2.6c1-0.6,2.1-0.9,3.3-0.9c1.3,0,2.4,0.3,3.2,0.8c0.9,0.5,1.5,1.2,2,2.2c0.4,1,0.7,2.1,0.7,3.4v2h-8.5l0,0.1
			c0,0.7,0.2,1.3,0.5,1.8c0.3,0.5,0.7,0.9,1.1,1.3c0.5,0.3,1.1,0.5,1.8,0.5c0.7,0,1.4-0.1,2-0.3s1.2-0.5,1.8-0.9l1,2.2
			c-0.6,0.5-1.3,0.9-2.2,1.2C324.3,78,323.3,78.2,322.1,78.2z M319.2,69.4h5.1v-0.3c0-0.6-0.1-1.1-0.3-1.6s-0.4-0.8-0.8-1
			c-0.4-0.2-0.8-0.4-1.4-0.4c-0.5,0-1,0.1-1.4,0.4c-0.4,0.3-0.7,0.7-0.9,1.2S319.2,68.8,319.2,69.4L319.2,69.4z"/>
		<path class="st2" d="M329.4,77.9v-2.2l1.9-0.4v-9.1l-2.1-0.4v-2.2h5.6v11.6l1.9,0.4v2.2H329.4z M331.2,60.6v-3.2h3.7v3.2H331.2z"
			/>
		<path class="st2" d="M344.4,83.7c-0.7,0-1.5-0.1-2.4-0.3c-0.9-0.2-1.6-0.4-2.3-0.8l0.7-2.6c0.6,0.3,1.2,0.5,1.9,0.6
			c0.7,0.2,1.3,0.2,1.9,0.2c1.1,0,1.8-0.3,2.3-0.9c0.5-0.6,0.7-1.4,0.7-2.5v-1c-0.4,0.5-0.9,1-1.5,1.2c-0.6,0.3-1.3,0.4-2,0.4
			c-1.2,0-2.1-0.3-3-0.9c-0.8-0.6-1.5-1.4-1.9-2.4c-0.4-1-0.7-2.3-0.7-3.7V71c0-1.5,0.2-2.8,0.7-3.9c0.4-1.1,1.1-2,1.9-2.6
			c0.8-0.6,1.8-0.9,2.9-0.9c0.9,0,1.6,0.2,2.2,0.5c0.6,0.4,1.2,0.9,1.6,1.5l0.3-1.8h3.1v13.8c0,1.2-0.3,2.3-0.8,3.2
			c-0.5,0.9-1.3,1.6-2.2,2.1C346.9,83.4,345.7,83.7,344.4,83.7z M344.7,75.4c0.6,0,1.1-0.1,1.5-0.4c0.4-0.2,0.8-0.6,1-1v-6.2
			c-0.3-0.5-0.6-0.8-1-1.1c-0.4-0.3-0.9-0.4-1.5-0.4c-0.7,0-1.3,0.2-1.7,0.6c-0.4,0.4-0.8,0.9-1,1.7c-0.2,0.7-0.3,1.5-0.3,2.5v0.3
			c0,1.3,0.2,2.3,0.7,3S343.7,75.4,344.7,75.4z M350.4,66.4l-1.5-2.6h3.7v2.2L350.4,66.4z"/>
		<path class="st2" d="M360.3,78.2c-1.3,0-2.5-0.3-3.5-0.9s-1.8-1.4-2.3-2.5c-0.5-1.1-0.8-2.3-0.8-3.6v-0.5c0-1.4,0.3-2.6,0.8-3.7
			c0.5-1.1,1.3-1.9,2.2-2.6c1-0.6,2.1-0.9,3.3-0.9c1.3,0,2.4,0.3,3.2,0.8c0.9,0.5,1.5,1.2,2,2.2c0.4,1,0.7,2.1,0.7,3.4v2h-8.5l0,0.1
			c0,0.7,0.2,1.3,0.5,1.8c0.3,0.5,0.7,0.9,1.1,1.3c0.5,0.3,1.1,0.5,1.8,0.5c0.7,0,1.4-0.1,2-0.3s1.2-0.5,1.8-0.9l1,2.2
			c-0.6,0.5-1.3,0.9-2.2,1.2C362.5,78,361.5,78.2,360.3,78.2z M357.4,69.4h5.1v-0.3c0-0.6-0.1-1.1-0.3-1.6s-0.4-0.8-0.8-1
			c-0.4-0.2-0.8-0.4-1.4-0.4c-0.5,0-1,0.1-1.4,0.4c-0.4,0.3-0.7,0.7-0.9,1.2S357.4,68.8,357.4,69.4L357.4,69.4z"/>
		<path class="st2" d="M367.9,77.9v-2.2l1.9-0.4v-9.1l-2-0.4v-2.2h5.4l0.2,1.8l0,0.3c0.4-0.8,0.8-1.3,1.3-1.7
			c0.5-0.4,1.2-0.6,1.9-0.6c0.2,0,0.5,0,0.8,0.1c0.3,0,0.5,0.1,0.7,0.2l-0.4,3.3l-1.9-0.1c-0.6,0-1,0.1-1.4,0.3
			c-0.4,0.2-0.7,0.6-0.9,1v7.2l1.9,0.4v2.2H367.9z"/>
		<path class="st2" d="M379.3,77.9v-2.2l1.9-0.4v-9.1l-2.1-0.4v-2.2h5.6v11.6l1.9,0.4v2.2H379.3z M381,60.6v-3.2h3.7v3.2H381z"/>
		<path class="st2" d="M394.6,78.2c-1.3,0-2.5-0.3-3.5-0.9c-1-0.6-1.7-1.4-2.3-2.5c-0.5-1.1-0.8-2.3-0.8-3.7v-0.4
			c0-1.4,0.3-2.6,0.8-3.7c0.5-1.1,1.3-1.9,2.3-2.5c1-0.6,2.1-0.9,3.5-0.9c1.2,0,2.3,0.2,3.2,0.6c0.9,0.4,1.7,0.9,2.2,1.4v3.9h-2.7
			l-0.5-2.5c-0.2-0.2-0.5-0.4-0.9-0.6c-0.3-0.1-0.7-0.2-1.1-0.2c-0.7,0-1.3,0.2-1.8,0.6c-0.5,0.4-0.9,0.9-1.1,1.6s-0.4,1.5-0.4,2.4
			v0.4c0,1,0.1,1.8,0.4,2.5c0.3,0.7,0.6,1.1,1.1,1.5c0.5,0.3,1,0.5,1.5,0.5c0.7,0,1.3-0.2,1.7-0.6c0.4-0.4,0.7-0.9,0.9-1.6h3.1
			l0,0.1c-0.1,1-0.4,1.8-0.8,2.5c-0.4,0.7-1.1,1.3-1.9,1.7C396.9,78,395.8,78.2,394.6,78.2z"/>
		<path class="st2" d="M401.9,77.9v-2.2l1.9-0.4V60l-2.1-0.4v-2.2h5.6v8.1c0.5-0.7,1-1.2,1.7-1.5c0.7-0.4,1.4-0.6,2.3-0.6
			c1.5,0,2.6,0.5,3.4,1.4c0.8,0.9,1.3,2.4,1.3,4.4v6.1l1.9,0.4v2.2h-7.2v-2.2l1.8-0.4v-6.2c0-1.1-0.2-1.8-0.6-2.3
			c-0.4-0.5-1-0.7-1.8-0.7c-0.6,0-1.1,0.1-1.5,0.4c-0.5,0.2-0.8,0.6-1.1,1v7.7l1.8,0.4v2.2H401.9z"/>
		<path class="st2" d="M424.2,78.2c-1.3,0-2.2-0.4-2.9-1.1c-0.7-0.7-1-1.8-1-3.4v-7.5h-2v-2.5h2v-3.5h3.6v3.5h2.7v2.5h-2.7v7.5
			c0,0.6,0.1,1,0.4,1.2c0.2,0.3,0.6,0.4,1,0.4c0.2,0,0.5,0,0.7-0.1c0.3,0,0.5-0.1,0.7-0.1l0.3,2.5c-0.4,0.1-0.8,0.2-1.3,0.3
			C425.2,78.2,424.7,78.2,424.2,78.2z"/>
	</g>
</g>
</svg>
